<svg width="26" height="20" viewBox="0 0 26 20" fill="none" xmlns="http://www.w3.org/2000/svg">
<path d="M18.625 0.125C16.45 0.125 14.3625 0.96875 13 2.30208C11.6375 0.96875 9.55 0.125 7.375 0.125C3.525 0.125 0.5 2.64583 0.5 5.85417C0.5 9.79167 4.75 13 11.1875 17.875L13 19.2396L14.8125 17.8646C21.25 13 25.5 9.79167 25.5 5.85417C25.5 2.64583 22.475 0.125 18.625 0.125ZM13.125 16.3229L13 16.4271L12.875 16.3229C6.925 11.8333 3 8.86458 3 5.85417C3 3.77083 4.875 2.20833 7.375 2.20833C9.3 2.20833 11.175 3.23958 11.8375 4.66667H14.175C14.825 3.23958 16.7 2.20833 18.625 2.20833C21.125 2.20833 23 3.77083 23 5.85417C23 8.86458 19.075 11.8333 13.125 16.3229Z" fill="#71767C"/>
</svg>
