<svg width="23" height="24" viewBox="0 0 23 24" fill="none" xmlns="http://www.w3.org/2000/svg">
<path d="M22.1296 21.2907L22.1292 21.2904L19.205 18.3007C20.7517 16.4156 21.6838 13.9856 21.6838 11.3387C21.6838 5.3728 16.9448 0.5 11.0924 0.5C5.24012 0.5 0.5 5.37273 0.5 11.3387C0.5 17.3047 5.24005 22.1785 11.0924 22.1785C13.4305 22.1785 15.5935 21.3989 17.3459 20.0829L20.316 23.1172L20.3167 23.118C20.5652 23.3708 20.8936 23.5 21.2225 23.5C21.5511 23.5 21.8824 23.3717 22.1318 23.1134C22.6246 22.6072 22.6216 21.7948 22.1296 21.2907ZM3.05443 11.3387C3.05443 6.78021 6.67196 3.09253 11.0924 3.09253C15.5118 3.09253 19.1293 6.78017 19.1293 11.3387C19.1293 15.8974 15.5117 19.586 11.0924 19.586C6.67204 19.586 3.05443 15.8973 3.05443 11.3387Z" fill="white" stroke="white"/>
</svg>
