<svg width="11" height="7" viewBox="0 0 11 7" fill="none" xmlns="http://www.w3.org/2000/svg">
<path d="M5.54666 5.01596C5.39363 4.87367 5.29917 4.79014 5.20943 4.70293C4.00126 3.52334 2.79309 2.34466 1.5868 1.16415C1.35537 0.937411 1.09654 0.808895 0.760258 0.909872C0.475926 0.995243 0.254884 1.18067 0.250161 1.46157C0.246383 1.69107 0.308728 1.99032 0.462701 2.14363C1.94481 3.62431 3.44865 5.08297 4.95533 6.53979C5.29161 6.86567 5.7148 6.86017 6.0577 6.52878C7.54643 5.08756 9.03043 3.64084 10.5088 2.18861C10.8328 1.87007 10.8233 1.43495 10.5229 1.14028C10.214 0.83827 9.76629 0.84286 9.42245 1.17517C8.22656 2.33365 7.03633 3.49763 5.84611 4.66162C5.74692 4.75893 5.66568 4.87459 5.54666 5.01596Z" fill="white"/>
</svg>
