<svg width="24" height="22" viewBox="0 0 24 22" fill="none" xmlns="http://www.w3.org/2000/svg">
<path d="M9.96336 16.8165C8.64405 17.7277 8.26066 18.5355 8.59644 19.5602C8.88461 20.4378 9.69524 21.02 10.6199 21.0112C11.547 21.0025 12.3502 20.4066 12.6208 19.5278C12.934 18.5106 12.5356 17.6903 11.2877 16.8514C13.2172 16.8514 15.094 16.8514 16.8556 16.8514C16.5248 17.2116 16.0888 17.5806 15.7906 18.0394C15.4737 18.528 15.5062 19.1102 15.7155 19.6612C16.035 20.5039 16.8631 21.0461 17.7665 21.0087C18.7212 20.9688 19.4892 20.3493 19.7298 19.4218C19.9916 18.4134 19.5757 17.6155 18.2914 16.8152C18.9567 16.8152 19.508 16.8177 20.0593 16.814C20.2623 16.8127 20.4703 16.8202 20.6657 16.7778C21.0153 16.703 21.2032 16.4562 21.1994 16.1072C21.1957 15.7581 21.004 15.5175 20.6532 15.4452C20.4715 15.4078 20.2798 15.4128 20.0931 15.4128C16.4346 15.4116 12.7749 15.4116 9.11639 15.4116C8.94475 15.4116 8.77059 15.4178 8.60145 15.3966C8.18674 15.3455 7.94618 15.0638 7.96622 14.6711C7.98878 14.2286 8.2143 14.0141 8.66785 14.0141C12.483 14.0129 16.2993 14.0141 20.1144 14.0129C20.9551 14.0129 21.0616 13.9294 21.2934 13.1253C22.1592 10.1086 23.0249 7.0906 23.892 4.07386C24.1676 3.11399 23.9383 2.80359 22.9435 2.80359C17.3292 2.80235 11.7162 2.79861 6.1019 2.81232C5.66087 2.81357 5.42282 2.72132 5.33386 2.25136C5.23363 1.71906 5.02815 1.20796 4.89534 0.680656C4.77882 0.218172 4.50819 -0.00247228 4.02958 2.08893e-05C2.96586 0.00625382 1.9034 -0.00371902 0.839677 0.0037605C0.31972 0.00750026 0.0102515 0.271777 0.000228182 0.685643C-0.00979509 1.11572 0.31095 1.39495 0.853459 1.40118C1.65031 1.40991 2.44841 1.41365 3.24526 1.39869C3.51965 1.3937 3.66373 1.46725 3.74267 1.74898C4.80388 5.48625 5.88013 9.21977 6.93759 12.9583C6.98896 13.139 6.94385 13.3859 6.85865 13.5616C6.02672 15.2919 6.97517 16.804 8.91092 16.814C9.23291 16.8177 9.55241 16.8165 9.96336 16.8165Z" fill="white"/>
</svg>
