<svg width="24" height="22" viewBox="0 0 24 22" fill="none" xmlns="http://www.w3.org/2000/svg">
<path d="M12.0049 3.85624C11.5915 3.31324 11.2293 2.76776 10.7972 2.28316C7.74374 -1.13885 2.44982 -0.0491237 0.686425 3.98298C-0.477515 6.64579 -0.122838 9.19428 1.45947 11.5949C2.49478 13.1655 3.82732 14.4776 5.23104 15.7115C7.26418 17.4996 9.3273 19.2528 11.3804 21.0185C11.8175 21.395 12.1435 21.4211 12.5444 21.0707C15.0983 18.839 17.671 16.6273 20.1824 14.3497C21.465 13.1866 22.5827 11.8521 23.2746 10.2405C24.4073 7.60256 24.2537 5.02798 22.529 2.69818C20.1362 -0.532479 15.5429 -0.577211 12.964 2.5354C12.6206 2.95166 12.3271 3.40892 12.0049 3.85624Z" fill="white"/>
</svg>
