<svg width="25" height="25" viewBox="0 0 25 25" fill="none" xmlns="http://www.w3.org/2000/svg">
<path d="M12.0207 0.237437C5.36988 0.244927 -0.0137745 5.63137 2.6475e-05 12.2649C0.0138275 18.8959 5.42132 24.2573 12.0759 24.2374C18.7079 24.2174 24.0753 18.8472 24.0728 12.2337C24.0715 5.60141 18.6741 0.228699 12.0207 0.237437ZM11.3282 13.8427C9.05475 13.2573 7.6207 11.3985 7.82018 9.24272C8.0134 7.15181 9.74731 5.48657 11.8237 5.40043C13.9717 5.31055 15.8147 6.77731 16.1924 8.86948C16.4007 10.0204 16.1585 11.074 15.4961 12.0277C14.8273 12.9901 13.8864 13.5506 12.7384 13.8065C12.8776 13.8627 13.0119 13.8939 13.1474 13.9151C16.2727 14.3932 18.4733 16.0872 19.8108 18.9308C19.9362 19.1967 19.8986 19.364 19.6941 19.5774C15.5676 23.9016 8.51776 23.9028 4.38624 19.5799C4.18299 19.3677 4.13908 19.203 4.26329 18.9333C5.45017 16.3518 7.42372 14.7203 10.1852 14.0375C10.5578 13.9451 10.9455 13.9064 11.3282 13.8427Z" fill="black"/>
</svg>
